<?xml version="1.0" standalone="no"?>
<!DOCTYPE svg PUBLIC "-//W3C//DTD SVG 20010904//EN"
 "http://www.w3.org/TR/2001/REC-SVG-20010904/DTD/svg10.dtd">
<svg version="1.0" xmlns="http://www.w3.org/2000/svg"
 width="1000.000000pt" height="1000.000000pt" viewBox="0 0 1000.000000 1000.000000"
 preserveAspectRatio="xMidYMid meet">
<metadata>
Created by potrace 1.11, written by Peter Selinger 2001-2013
</metadata>
<g transform="translate(0.000000,1000.000000) scale(0.100000,-0.100000)"
fill="#000000" stroke="none">
<path d="M7145 7554 c-331 -25 -574 -89 -833 -220 -81 -41 -189 -105 -241
-142 -112 -80 -287 -245 -373 -351 -273 -338 -444 -767 -515 -1291 -26 -196
-26 -925 0 -1110 76 -535 251 -963 530 -1298 492 -590 1325 -833 2142 -626
444 113 844 397 1104 784 301 449 431 960 431 1695 0 534 -59 892 -207 1265
-286 719 -853 1175 -1588 1274 -114 15 -363 26 -450 20z m335 -860 c463 -88
748 -459 844 -1100 40 -265 45 -815 11 -1114 -76 -653 -341 -1051 -780 -1170
-112 -31 -344 -38 -473 -16 -184 32 -326 104 -464 235 -243 230 -376 579 -419
1096 -16 192 -6 770 16 925 56 404 168 677 360 879 122 128 257 208 420 249
107 27 119 29 271 31 84 0 162 -5 214 -15z"/>
<path d="M970 5000 l0 -2490 510 0 510 0 0 714 0 715 266 286 267 287 51 -79
c28 -43 317 -493 641 -1001 l590 -922 603 0 c331 0 602 3 602 6 0 3 -400 614
-888 1357 -489 744 -896 1364 -906 1378 l-17 27 874 1093 c480 602 876 1100
880 1107 7 9 -119 12 -616 12 l-624 0 -628 -812 c-346 -447 -733 -954 -860
-1128 l-230 -315 -3 1128 -2 1127 -510 0 -510 0 0 -2490z"/>
</g>
</svg>
