<?xml version="1.0" standalone="no"?>
<!DOCTYPE svg PUBLIC "-//W3C//DTD SVG 20010904//EN"
 "http://www.w3.org/TR/2001/REC-SVG-20010904/DTD/svg10.dtd">
<svg version="1.0" xmlns="http://www.w3.org/2000/svg"
 width="1000.000000pt" height="1000.000000pt" viewBox="0 0 1000.000000 1000.000000"
 preserveAspectRatio="xMidYMid meet">
<metadata>
Created by potrace 1.11, written by Peter Selinger 2001-2013
</metadata>
<g transform="translate(0.000000,1000.000000) scale(0.100000,-0.100000)"
fill="#000000" stroke="none">
<path d="M4620 9985 c-468 -42 -825 -115 -1230 -254 -542 -185 -1017 -441
-1465 -790 -298 -232 -611 -544 -846 -841 -249 -314 -476 -688 -635 -1042
-576 -1290 -590 -2735 -38 -4025 114 -267 211 -453 362 -693 529 -839 1306
-1513 2203 -1909 1016 -448 2150 -549 3216 -286 797 197 1508 568 2118 1106
126 111 370 356 472 474 438 506 768 1092 976 1730 354 1091 323 2279 -88
3340 -143 368 -277 627 -501 966 -336 509 -771 960 -1264 1311 -667 474 -1438
778 -2245 883 -346 45 -736 56 -1035 30z m2891 -2435 c922 -93 1596 -732 1809
-1715 53 -246 62 -349 67 -755 8 -578 -25 -842 -147 -1213 -187 -563 -544
-990 -1025 -1222 -284 -138 -591 -205 -935 -205 -1147 0 -1957 782 -2106 2035
-8 72 -18 252 -21 400 -9 425 19 735 91 1030 237 962 888 1553 1816 1648 81 8
355 6 451 -3z m-5519 -1184 l3 -1124 222 305 c122 168 507 673 855 1124 l633
818 633 1 634 0 -30 -37 c-17 -21 -411 -515 -877 -1098 -466 -583 -849 -1065
-852 -1072 -2 -6 403 -632 901 -1390 l906 -1378 -607 -3 c-477 -2 -610 1 -619
10 -6 7 -294 454 -638 993 -345 539 -630 980 -635 980 -4 0 -125 -127 -269
-282 l-262 -282 0 -710 0 -711 -515 0 -515 0 0 2490 0 2490 515 0 515 0 2
-1124z"/>
<path d="M7129 6700 c-425 -54 -715 -343 -850 -846 -69 -259 -99 -659 -80
-1083 12 -272 30 -413 77 -599 96 -377 279 -645 534 -780 150 -80 273 -107
480 -106 133 1 169 5 254 28 230 60 398 181 530 379 151 227 234 510 267 912
16 196 6 802 -15 954 -32 223 -83 407 -156 568 -137 298 -376 498 -666 558
-94 19 -283 27 -375 15z"/>
</g>
</svg>
